{"title":"Kiki's Delivery Service (Majo no takkyubin) 1989 BRrip 1080P x26","uid":9676611,"size":2062212618,"categoryP":"video","categoryS":"hd___movies","magnet":"?xt=urn:btih:c0ec4570ad0a5022c56b83a97e1fa057f608c60d&amp;dn=Kiki%27s+Delivery+Service+%28Majo+no+takkyubin%29+1989+BRrip+1080P+x26&amp;tr=udp%3A%2F%2Ftracker.openbittorrent.com%3A80&amp;tr=udp%3A%2F%2Fopen.demonii.com%3A1337&amp;tr=udp%3A%2F%2Ftracker.coppersurfer.tk%3A6969&amp;tr=udp%3A%2F%2Fexodus.desync.com%3A6969","seeders":24,"leechers":1,"uploader":"realOfek","files":3,"time":1393573245,"description":"Please leave feedback!\n\nDownload .txt first to check upload date AND signature are correct. Formatting may look weird in notepad, just copy/paste into different text editor like usual.\n\n[url=&quot;http://www.imdb.com/title/tt0097814/&quot;]http://www.imdb.com/title/tt0097814/[/url]\n\nSource: BDrip\n\nUsed 3 pass on very slow.\n\nSTUDIO GHIBLI FTW!!!\n\nGeneral\nFormat                                   : MPEG-4\nFormat profile                           : Base Media\nCodec ID                                 : isom\nFile size                                : 1.92 GiB\nDuration                                 : 1h 43mn\nOverall bit rate mode                    : Variable\nOverall bit rate                         : 2 668 Kbps\nEncoded date                             : UTC 2014-02-26 09:44:47\nTagged date                              : UTC 2014-02-26 09:44:47\n\nVideo\nID                                       : 1\nFormat                                   : AVC\nFormat/Info                              : Advanced Video Codec\nFormat profile                           : &lt;a class=&quot;__cf_email__&quot; href=&quot;/cdn-cgi/l/email-protection&quot; data-cfemail=&quot;c880a1afa08884fce6f8&quot;&gt;[email&amp;#160;protected]&lt;/a&gt;&lt;script cf-hash='f9e31' type=&quot;text/javascript&quot;&gt;\n/* &lt;![CDATA[ */!function(){try{var t=&quot;currentScript&quot;in document?document.currentScript:function(){for(var t=document.getElementsByTagName(&quot;script&quot;),e=t.length;e--;)if(t[e].getAttribute(&quot;cf-hash&quot;))return t[e]}();if(t&amp;&amp;t.previousSibling){var e,r,n,i,c=t.previousSibling,a=c.getAttribute(&quot;data-cfemail&quot;);if(a){for(e=&quot;&quot;,r=parseInt(a.substr(0,2),16),n=2;a.length-n;n+=2)i=parseInt(a.substr(n,2),16)^r,e+=String.fromCharCode(i);e=document.createTextNode(e),c.parentNode.replaceChild(e,c)}}}catch(u){}}();/* ]]&gt; */&lt;/script&gt;\nFormat settings, CABAC                   : Yes\nFormat settings, ReFrames                : 4 frames\nCodec ID                                 : avc1\nCodec ID/Info                            : Advanced Video Coding\nDuration                                 : 1h 43mn\nBit rate                                 : 2 500 Kbps\nMaximum bit rate                         : 14.9 Mbps\nWidth                                    : 1 920 pixels\nHeight                                   : 1 024 pixels\nDisplay aspect ratio                     : 1.85:1\nFrame rate mode                          : Constant\nFrame rate                               : 23.976 fps\nColor space                              : YUV\nChroma subsampling                       : 4:2:0\nBit depth                                : 8 bits\nScan type                                : Progressive\nBits/(Pixel*Frame)                       : 0.053\nStream size                              : 1.80 GiB (94%)\nTitle                                    : Video\nWriting library                          : x264 core 133 r2334 a3ac64b\nEncoding settings                        : cabac=1 / ref=4 / deblock=1:1:1 / analyse=0x3:0x133 / me=umh / subme=10 / psy=1 / psy_rd=0.40:0.00 / mixed_ref=1 / me_range=24 / chroma_me=1 / trellis=2 / 8x8dct=1 / cqm=0 / deadzone=21,11 / fast_pskip=1 / chroma_qp_offset=-2 / threads=12 / lookahead_threads=1 / sliced_threads=0 / nr=0 / decimate=1 / interlaced=0 / bluray_compat=0 / constrained_intra=0 / bframes=3 / b_pyramid=2 / b_adapt=2 / b_bias=0 / direct=3 / weightb=1 / open_gop=0 / weightp=2 / keyint=250 / keyint_min=23 / scenecut=40 / intra_refresh=0 / rc_lookahead=60 / rc=2pass / mbtree=1 / bitrate=2500 / ratetol=1.0 / qcomp=0.60 / qpmin=0 / qpmax=69 / qpstep=4 / cplxblur=20.0 / qblur=0.5 / ip_ratio=1.40 / aq=1:0.60\nEncoded date                             : UTC 2014-02-26 09:44:47\nTagged date                              : UTC 2014-02-26 09:46:33\n\nAudio #1\nID                                       : 2\nFormat                                   : AAC\nFormat/Info                              : Advanced Audio Codec\nFormat profile                           : HE-AAC / LC\nCodec ID                                 : 40\nDuration                                 : 1h 43mn\nBit rate mode                            : Variable\nBit rate                                 : 78.8 Kbps\nMaximum bit rate                         : 106 Kbps\nChannel(s)                               : 2 channels\nChannel positions                        : Front: L R\nSampling rate                            : 48.0 KHz / 24.0 KHz\nCompression mode                         : Lossy\nStream size                              : 58.1 MiB (3%)\nLanguage                                 : English\nEncoded date                             : UTC 2014-02-26 09:46:31\nTagged date                              : UTC 2014-02-26 09:46:33\n\nAudio #2\nID                                       : 3\nFormat                                   : AAC\nFormat/Info                              : Advanced Audio Codec\nFormat profile                           : HE-AAC / LC\nCodec ID                                 : 40\nDuration                                 : 1h 43mn\nBit rate mode                            : Variable\nBit rate                                 : 85.0 Kbps\nMaximum bit rate                         : 111 Kbps\nChannel(s)                               : 2 channels\nChannel positions                        : Front: L R\nSampling rate                            : 48.0 KHz / 24.0 KHz\nCompression mode                         : Lossy\nStream size                              : 62.7 MiB (3%)\nLanguage                                 : Japanese\nEncoded date                             : UTC 2014-02-26 09:46:32\nTagged date                              : UTC 2014-02-26 09:46:33\n\n\n\n\n\n\nEnjoy!","torrent":{"xt":"urn:btih:c0ec4570ad0a5022c56b83a97e1fa057f608c60d","amp;dn":"Kiki%27s+Delivery+Service+%28Majo+no+takkyubin%29+1989+BRrip+1080P+x26","amp;tr":["udp%3A%2F%2Ftracker.openbittorrent.com%3A80","udp%3A%2F%2Fopen.demonii.com%3A1337","udp%3A%2F%2Ftracker.coppersurfer.tk%3A6969","udp%3A%2F%2Fexodus.desync.com%3A6969"],"infoHash":"c0ec4570ad0a5022c56b83a97e1fa057f608c60d","infoHashBuffer":{"type":"Buffer","data":[192,236,69,112,173,10,80,34,197,107,131,169,126,31,160,87,246,8,198,13]},"announce":[],"urlList":[]}}